<svg xmlns="http://www.w3.org/2000/svg" width="15" height="15" viewBox="0 0 24 24" aria-hidden="true" role="img">
  <circle cx="12" cy="12" r="10" fill="#000"></circle>
  <path fill="#fff" d="M16.5 13.3c-.3-.15-1.5-.85-1.73-.95-.23-.1-.4-.15-.58.15-.18.3-.7.95-.86 1.15-.16.2-.32.22-.6.08-1.6-.82-2.64-1.46-3.7-2.94-.28-.36.28-.33.82-1.1.09-.14.05-.26-.02-.4-.07-.14-.56-1.52-.77-2.08-.2-.55-.4-.48-.55-.49l-.47-.01c-.16 0-.42.07-.64.34s-.84 0-.84 1.45c0 1.44 1.02 2.43 1.16 2.6.14.18 1.96 3.02 4.74 4.24.66.29 1.17.46 1.57.59.66.21 1.26.18 1.73.11.52-.08 1.6-.66 1.82-1.3.22-.64.22-1.2.15-1.32-.07-.12-.25-.18-.52-.31z"></path>
</svg>
