<svg xmlns="http://www.w3.org/2000/svg" width="32" height="32" viewBox="0 0 24 24" role="img" aria-label="LinkedIn">
  <path fill="#002868" d="M20.447 20.452h-3.554v-5.569c0-1.328-.025-3.037-1.852-3.037-1.853 0-2.136 1.445-2.136 2.939v5.667h-3.554V9h3.414v1.561h.049c.476-.9 1.637-1.852 3.369-1.852 3.602 0 4.268 2.371 4.268 5.455v6.288zM7.337 7.433c-1.144 0-2.069-.928-2.069-2.069 0-1.144.925-2.069 2.069-2.069 1.143 0 2.069.925 2.069 2.069 0 1.141-.926 2.069-2.069 2.069zM9.114 20.452H5.56V9h3.554v11.452z"></path>
</svg>
