<?xml version="1.0" standalone="no"?>
<!DOCTYPE svg PUBLIC "-//W3C//DTD SVG 20010904//EN"
 "http://www.w3.org/TR/2001/REC-SVG-20010904/DTD/svg10.dtd">
<svg version="1.0" xmlns="http://www.w3.org/2000/svg"
 width="333.000000pt" height="333.000000pt" viewBox="0 0 500.000000 500.000000"
 preserveAspectRatio="xMidYMid meet">

<g transform="translate(0.000000,500.000000) scale(0.100000,-0.100000)"
fill="#d69ba3ff" stroke="none">
<path d="M0 2500 l0 -2500 2500 0 2500 0 0 2500 0 2500 -2500 0 -2500 0 0
-2500z m1006 1100 c176 0 221 3 245 16 17 8 33 13 36 11 2 -3 -6 -9 -19 -14
-13 -5 154 -10 402 -13 l425 -5 -440 -3 c-359 -2 -445 -5 -465 -17 -33 -19
-49 -19 -24 0 17 13 -3 14 -178 15 l-198 0 0 -30 0 -30 143 0 c104 1 149 5
167 15 14 8 30 14 35 14 6 0 -1 -6 -15 -14 -22 -13 22 -15 375 -17 l400 -3
-420 -5 c-231 -3 -429 -9 -439 -14 -14 -7 -17 -6 -12 2 5 9 -24 12 -113 12
l-121 0 -2 -67 -2 -68 -3 68 -4 67 -264 0 -265 0 0 -265 0 -265 60 0 c51 0 60
-3 59 -17 0 -11 -3 -13 -6 -5 -3 7 -25 12 -59 12 l-54 0 0 -122 1 -123 19 35
c25 47 25 30 0 -20 -19 -37 -20 -61 -22 -457 l-3 -418 -5 400 -5 400 -27 -61
-28 -62 -2 -443 -3 -444 -5 425 c-5 407 -6 424 -22 395 -24 -42 -22 -23 2 25
19 37 20 56 18 252 l-3 213 -35 6 -35 6 38 2 37 1 0 305 0 305 305 0 305 0 2
38 1 37 4 -37 4 -38 215 0z m330 45 c-11 -8 -25 -15 -30 -15 -6 1 0 7 14 15
32 19 40 18 16 0z m-366 -170 c-25 -13 -49 -24 -55 -24 -5 0 10 11 35 24 25
13 50 24 55 24 6 0 -10 -11 -35 -24z m-100 -45 c-19 -11 -39 -19 -45 -19 -5 0
6 8 25 19 19 11 40 19 45 19 6 0 -6 -8 -25 -19z m627 -476 c10 -27 -14 -61
-61 -84 -63 -30 -91 -23 -40 10 22 14 46 40 54 57 16 35 37 43 47 17z m-1171
-81 c-14 -26 -25 -45 -26 -41 0 12 43 98 48 94 2 -2 -8 -26 -22 -53z m610 -76
c19 -19 -20 -32 -86 -29 -51 2 -70 -1 -71 -10 0 -7 -4 -99 -7 -205 -7 -197
-13 -222 -48 -209 -15 6 -16 18 -8 139 4 72 8 168 9 212 l0 80 -45 -3 c-25 -2
-57 -5 -72 -8 -33 -7 -40 18 -10 36 19 12 326 10 338 -3z m271 -62 c41 -119
90 -353 80 -379 -8 -20 -43 -21 -51 -1 -3 8 -8 45 -12 81 -8 78 -20 86 -123
82 l-66 -3 -17 -73 c-18 -80 -31 -102 -59 -102 -22 0 -20 13 13 109 10 30 18
55 18 57 0 1 -12 4 -27 6 l-28 4 32 14 c26 12 42 34 81 115 54 110 96 168 120
163 9 -2 25 -32 39 -73z m591 59 c32 -22 28 -87 -5 -92 -18 -3 -23 1 -23 19 0
35 -28 59 -71 59 -45 0 -69 -21 -69 -61 0 -47 15 -65 90 -109 83 -49 105 -82
97 -149 -4 -35 -13 -52 -40 -77 -62 -57 -180 -56 -226 3 -34 42 -24 113 16
113 7 0 13 -9 13 -21 0 -57 47 -98 112 -99 39 0 50 4 68 27 41 52 5 117 -96
172 -61 33 -89 71 -89 121 0 44 23 75 70 96 42 19 126 18 153 -2z m967 -17
c44 -44 60 -118 45 -211 -25 -159 -110 -243 -224 -222 -86 16 -127 105 -107
228 24 148 103 238 210 238 35 0 49 -6 76 -33z m162 13 c7 -24 5 -24 45 0 44
27 111 27 138 0 24 -24 27 -88 5 -129 -14 -28 -63 -75 -85 -83 -22 -7 77 -198
103 -198 6 0 19 8 30 18 18 16 19 16 16 -2 -6 -29 -53 -60 -82 -52 -31 7 -74
73 -103 156 -19 55 -27 65 -48 68 -25 3 -26 1 -26 -52 0 -71 -17 -151 -36
-167 -30 -25 -34 4 -19 131 8 69 15 168 15 221 0 53 3 99 7 102 13 14 35 6 40
-13z m360 2 c4 -18 6 -18 43 0 49 25 133 22 138 -4 3 -16 -5 -18 -70 -18 -97
0 -106 -7 -114 -96 l-7 -72 74 2 c58 1 74 -2 76 -14 3 -12 -10 -15 -71 -15
-41 -1 -77 -3 -79 -5 -2 -3 -7 -47 -10 -97 l-6 -93 57 0 c32 0 73 4 92 10 21
6 38 6 44 0 16 -16 -12 -37 -57 -42 -59 -7 -238 7 -211 16 25 9 27 19 45 266
6 85 13 161 15 168 5 19 35 14 41 -6z m493 -2 c10 -19 11 -19 43 0 34 21 97
26 127 10 26 -14 40 -61 30 -107 -6 -26 -23 -51 -54 -80 -25 -23 -46 -46 -46
-52 0 -21 67 -146 89 -165 20 -18 22 -18 41 -1 17 16 20 16 20 2 0 -19 -46
-57 -71 -57 -35 0 -84 71 -119 175 -14 41 -22 51 -42 53 -25 3 -26 3 -30 -86
-3 -62 -9 -98 -21 -116 -31 -47 -40 -33 -33 57 3 45 9 145 12 222 3 77 7 146
9 153 7 19 33 14 45 -8z m528 -50 c13 -36 32 -103 42 -150 10 -47 23 -101 29
-120 16 -52 14 -119 -4 -126 -27 -11 -42 15 -48 83 -4 37 -11 71 -17 77 -6 6
-46 13 -90 14 l-79 4 -11 -43 c-33 -129 -35 -134 -58 -137 -28 -4 -28 12 -2
98 11 36 20 66 20 68 0 1 -12 2 -26 2 -33 0 -23 16 16 23 16 4 30 12 30 18 0
20 77 173 109 217 43 58 60 53 89 -28z m-2793 51 c-6 -5 -21 -11 -34 -13 -35
-4 -41 -35 -48 -230 l-6 -168 36 0 c28 0 35 -3 31 -15 -5 -12 -25 -15 -95 -15
-49 0 -89 4 -89 9 0 5 12 11 27 13 l28 3 12 125 c6 69 12 160 12 203 l1 78
-35 -7 c-32 -6 -45 3 -28 19 3 4 49 7 102 7 58 0 91 -4 86 -9z m623 -53 c12
-32 31 -106 40 -165 l18 -108 14 55 c20 85 70 222 92 253 11 15 26 27 34 27
40 0 78 -134 93 -330 10 -121 5 -144 -27 -124 -14 9 -18 33 -24 130 -7 123
-33 264 -48 264 -12 0 -66 -167 -90 -280 -12 -52 -26 -100 -32 -107 -21 -26
-37 -14 -42 35 -14 111 -37 232 -57 297 -21 69 -21 69 -35 43 -20 -38 -50
-172 -65 -284 -12 -87 -14 -95 -33 -92 -16 2 -22 12 -24 36 -4 43 22 176 54
272 53 156 91 179 132 78z m1542 52 c0 -5 -13 -10 -29 -10 -17 0 -31 -6 -35
-15 -12 -31 -29 -292 -22 -338 7 -44 9 -47 37 -47 20 0 29 -4 27 -12 -3 -9
-34 -14 -97 -16 -89 -3 -116 8 -52 21 l29 6 8 178 c5 98 9 187 9 198 0 17 -6
19 -32 17 -31 -3 -42 6 -26 21 11 11 183 8 183 -3z m-3559 -363 c-10 -9 -11
-8 -5 6 3 10 9 15 12 12 3 -3 0 -11 -7 -18z m1297 -243 c35 -7 44 -24 13 -24
-12 0 -23 -9 -27 -22 -18 -59 -75 -107 -100 -86 -19 14 -5 45 37 83 22 19 39
37 39 40 0 12 -57 3 -82 -13 -54 -36 -108 -124 -108 -179 0 -28 25 -63 55 -78
44 -20 56 -19 99 10 21 14 41 23 46 20 4 -3 10 2 14 10 8 23 57 19 63 -5 7
-27 58 -27 98 0 36 24 45 25 45 5 0 -12 4 -13 26 -3 22 10 28 9 50 -15 28 -31
-2z m1180 -467 c0 -2 -327 -3 -727 -2 l-728 3 710 5 c662 5 745 4 745 -6z m83
-131 c-200 -2 -526 -2 -725 0 -200 1 -37 2 362 2 399 0 562 -1 363 -2z m-220
-120 c-199 -2 -527 -2 -730 0 -202 1 -39 2 362 2 402 0 567 -1 368 -2z"/>
<path d="M180 3290 l0 -300 30 0 30 0 0 270 0 270 270 0 270 0 0 30 0 30 -300
0 -300 0 0 -300z"/>
<path d="M180 2783 l1 -198 30 58 c29 57 30 60 27 195 l-3 137 -27 3 -28 3 0
-198z"/>
<path d="M1098 2673 c-60 -132 -62 -123 28 -123 l77 0 -7 30 c-11 59 -48 170
-56 170 -4 0 -23 -35 -42 -77z"/>
<path d="M2586 2745 c-33 -36 -51 -107 -51 -200 1 -102 19 -139 75 -156 34
-10 46 -10 75 4 47 22 67 66 72 161 9 143 -27 216 -107 216 -31 0 -47 -6 -64
-25z"/>
<path d="M2963 2760 c-30 -18 -33 -24 -33 -69 0 -26 -3 -63 -6 -80 -7 -31 -6
-32 22 -25 88 20 141 77 130 138 -4 22 -15 37 -32 44 -34 16 -44 15 -81 -8z"/>
<path d="M3824 2766 c-39 -17 -44 -31 -44 -116 l0 -69 48 14 c59 18 102 63
102 108 0 61 -47 89 -106 63z"/>
<path d="M4222 2722 c-12 -22 -33 -69 -47 -105 l-24 -66 79 -3 79 -3 -6 25
c-3 14 -17 63 -32 109 l-26 83 -23 -40z"/>
<path d="M1347 2114 c-28 -28 -35 -48 -15 -42 16 6 53 56 46 63 -3 3 -17 -7
-31 -21z"/>
<path d="M1851 2084 c0 -11 3 -14 6 -6 3 7 2 16 -1 19 -3 4 -6 -2 -5 -13z"/>
<path d="M2590 2049 c-16 -68 -5 -74 14 -8 19 62 18 59 7 59 -5 0 -14 -23 -21
-51z"/>
<path d="M2249 2046 c-27 -62 -19 -69 10 -10 13 25 20 48 17 51 -3 3 -15 -15
-27 -41z"/>
<path d="M3014 2054 c-8 -20 -13 -39 -10 -42 3 -3 6 -3 6 0 0 3 7 22 15 42 8
20 13 36 10 36 -3 0 -13 -16 -21 -36z"/>
<path d="M3475 2057 c-22 -53 -17 -70 6 -18 11 24 17 46 14 49 -2 3 -12 -11
-20 -31z"/>
<path d="M3645 1950 c-3 -6 1 -7 9 -4 18 7 21 14 7 14 -6 0 -13 -4 -16 -10z"/>
<path d="M2002 1930 c-6 -11 -12 -22 -12 -25 0 -11 20 6 30 26 14 25 -2 25
-18 -1z"/>
<path d="M2932 1938 c-14 -14 -16 -38 -3 -38 5 0 14 7 21 15 17 20 0 41 -18
23z"/>
<path d="M3170 1930 c-6 -12 -9 -24 -7 -27 3 -2 11 5 17 17 6 12 9 24 7 27 -3
2 -11 -5 -17 -17z"/>
<path d="M3390 1930 c-15 -28 -4 -39 17 -17 13 12 14 20 6 28 -8 8 -14 5 -23
-11z"/>
<path d="M1417 1926 c-3 -8 -2 -18 3 -21 13 -8 20 9 11 24 -6 10 -10 9 -14 -3z"/>
<path d="M2217 1933 c-13 -12 -7 -33 8 -33 8 0 15 9 15 20 0 20 -11 26 -23 13z"/>
</g>
</svg>
